<svg version="1.1" id="Layer_1" xmlns="http://www.w3.org/2000/svg" x="0" y="0" width="1074.5" height="252.6" xml:space="preserve"><style>.st0{fill:#0051a4}</style><path class="st0" d="M196.5 150.2c-3.8 17-20.1 67.2-106.9 67.2-60.4 0-89.6-31.3-89.6-75.9 0-53.9 42.1-98.7 113-98.7 46.4 0 87.9 16.1 89.1 66.1h-60.7c.6-15.6-8.8-24.5-28.6-24.5-35.6 0-48.5 32.7-48.5 56.3 0 13.8 4.1 35.2 33.6 35.2 20.2 0 31.5-11 35.6-25.7h63zM219.6 128.9c9.1-32.2 40.3-39.7 77.4-39.7 27.5 0 73.6 2.8 73.6 32.2 0 18.9-18.4 73.3-18.4 81.2 0 4.4.9 7.9 2.3 10.7h-56.7c-1.5-3.7-2.3-7.7-2-11.7h-.6c-10.2 9.8-29.8 14.7-46.7 14.7-26 0-49.1-9.1-49.1-32.2 0-32 29.8-40.6 73.3-43.2 16.4-.9 42.3.9 42.3-14 0-8.4-9.3-10.5-18.1-10.5-11.7 0-19.9 3.3-23.1 12.4h-54.2zm56.1 60.2c19.6 0 27.5-11.4 31-29.4-9.3 3.7-20.1 4.7-30.7 5.4-9.6.7-18.7 4.7-18.7 13.5 0 8.4 9 10.5 18.4 10.5zM404.8 92.3h55.8l-4.4 15.4h.6c11.1-11 28.6-18.4 47-18.4 26.6 0 49.4 8.9 49.4 32.7 0 5.4-1.8 14.2-4.1 23.1l-18.4 68.4h-57.8l14.9-55.6c1.8-7 4.7-15.2 4.7-20.1 0-7.7-7-11.7-16.4-11.7-18.4 0-24.5 10.5-28 23.1L431 213.4h-57.8l31.6-121.1zM586.2 92.3h56.1l-3.5 13.8h.6c9.9-11.2 22.8-16.8 40.6-16.8 42.6 0 55.2 28.2 55.2 49.7 0 35.9-22.5 77.5-73.9 77.5-16.6 0-33-1.6-45.6-17.7L602 252.6h-57.8l42-160.3zm91.1 52c0-11.9-4.1-21.5-21-21.5-25.7 0-30.4 29.4-30.4 40.1 0 4.4 2 19.8 21 19.8 23.1.1 30.4-22.7 30.4-38.4zM757.1 128.9c9.1-32.2 40.3-39.7 77.4-39.7 27.5 0 73.6 2.8 73.6 32.2 0 18.9-18.4 73.3-18.4 81.2 0 4.4.9 7.9 2.3 10.7h-56.7c-1.5-3.7-2.3-7.7-2-11.7h-.6c-10.2 9.8-29.8 14.7-46.7 14.7-26 0-49.1-9.1-49.1-32.2 0-32 29.8-40.6 73.3-43.2 16.4-.9 42.3.9 42.3-14 0-8.4-9.3-10.5-18.1-10.5-11.7 0-19.9 3.3-23.1 12.4h-54.2zm56.1 60.2c19.6 0 27.5-11.4 31-29.4-9.3 3.7-20.1 4.7-30.7 5.4-9.6.7-18.7 4.7-18.7 13.5 0 8.4 9.1 10.5 18.4 10.5zM942.6 92.3h56.1l-5 18.9h.6c10.2-12.8 29.2-21.9 44.1-21.9 9.6 0 15.2.5 20.4 1.9L1048 132c-7-2.1-14.9-3-22.2-3-24.5 0-36.8 8.4-43.5 33.8l-13.1 50.6h-57.8l31.2-121.1z"/><path d="M237.2 79.1S424.8 6 687.8.5c233.9-4.9 386.6 30.6 386.6 30.6l-9.2 33.5S920.6 28.1 687.8 23.8c-243.4-4.4-450.6 55.3-450.6 55.3z" fill="#f23a3e"/></svg>